<?xml version="1.0" standalone="no"?><!DOCTYPE svg PUBLIC "-//W3C//DTD SVG 1.1//EN" "http://www.w3.org/Graphics/SVG/1.1/DTD/svg11.dtd"><svg t="1738688821487" class="icon" viewBox="0 0 1024 1024" version="1.1" xmlns="http://www.w3.org/2000/svg" p-id="10357" xmlns:xlink="http://www.w3.org/1999/xlink" width="200" height="200"><path d="M452.053333 328.618667c-15.317333-0.085333-30.634667-0.170667-45.994666 0.085333a7701.333333 7701.333333 0 0 1-51.2 114.261333c-4.864 11.349333-10.88 26.410667-0.554667 36.693334 9.856 8.917333 23.168 8.618667 36.010667 8.32 4.352-0.085333 8.704-0.170667 12.8 0.085333-4.48 11.392-9.557333 22.528-14.592 33.706667-7.594667 16.64-15.189333 33.322667-20.906667 50.773333-5.248 14.336 7.893333 29.098667 22.186667 29.098667 16.298667 1.109333 32.64 0.896 48.938666 0.725333 9.728-0.085333 19.498667-0.213333 29.226667-0.042667l5.418667-12.16c6.698667-14.933333 13.397333-29.866667 19.968-44.928-3.157333 0-6.357333 0-9.557334 0.085334-12.074667 0.170667-24.234667 0.341333-35.84-2.005334 9.685333-24.362667 20.48-48.298667 31.232-72.149333 7.168-15.914667 14.336-31.786667 21.205334-47.786667a150.869333 150.869333 0 0 0-24.789334-0.128c-13.610667 0.682667-27.178667 1.365333-39.082666-3.669333 5.632-18.986667 14.08-36.992 22.485333-55.04 5.546667-11.861333 11.093333-23.722667 15.829333-35.84l-22.784-0.085333z m-254.592 4.437333h-66.986666a20809.386667 20809.386667 0 0 0-0.512 167.424c0 41.898667-0.042667 83.754667-0.256 125.653333a10.325333 10.325333 0 0 1-10.453334 12.8 420.650667 420.650667 0 0 1-27.178666 0.384h-8.149334c7.893333 19.413333 16.469333 38.613333 25.301334 57.6 5.034667-0.170667 10.24-0.085333 15.445333 0 17.92 0.426667 36.394667 0.768 51.072-10.666666 17.237333-12.672 22.528-35.2 22.186667-55.509334V556.373333c0-74.453333 0-148.906667-0.426667-223.317333z m566.058667-4.096h68.010667v25.6c32.597333-1.28 70.613333-1.237333 94.165333 25.216 19.669333 21.717333 19.114667 50.901333 18.56 78.933333-0.128 8.064-0.298667 16 0 23.68 24.618667 0.426667 52.053333 6.229333 67.242667 27.562667 13.312 18.773333 12.8 41.642667 12.245333 64a307.626667 307.626667 0 0 0 0 22.357333c-0.213333 5.674667-0.042667 11.52 0.085333 17.536 0.512 22.997333 1.109333 47.232-16.853333 63.829334-18.474667 19.968-45.568 19.669333-71.381333 19.413333-7.424-0.085333-14.762667-0.170667-21.76 0.256a917.248 917.248 0 0 1-22.186667-49.834667l-3.712-8.874666c7.68-0.213333 15.402667-0.170667 23.125333-0.085334 11.264 0.128 22.485333 0.256 33.706667-0.554666a11.093333 11.093333 0 0 0 10.410667-11.733334c0.938667-18.176 0.938667-36.309333 0-54.485333 0.341333-12.8-12.970667-20.949333-24.533334-19.968-22.101333-0.341333-44.16-0.213333-66.218666-0.128-11.008 0.085333-22.058667 0.128-33.109334 0.128v145.28H763.306667V551.68h-68.010667v-68.266667c22.613333 0 45.269333 0 67.84-0.341333 0.426667-19.626667 0.426667-39.466667 0-59.349333-15.018667-0.256-30.037333-0.426667-45.141333-0.298667V354.944h45.141333l0.426667-25.984z m67.669333 94.293333c0 19.925333 0.128 39.936 0.426667 59.904h45.909333c0-4.992 0.085333-10.026667 0.170667-15.061333 0.256-12.970667 0.469333-25.984-0.853333-38.997333-7.466667-7.893333-18.645333-6.954667-29.610667-6.058667-5.546667 0.426667-11.093333 0.853333-16.042667 0.170667z m-154.666666-68.693333h-155.818667c-0.128 22.826667-0.085333 45.653333 0.128 68.608h42.666667v205.098667c-20.352 0.256-40.789333 0.256-61.184 0.256-10.581333 22.698667-20.906667 45.482667-31.146667 68.266666h228.181333v-68.266666c-10.922667-0.128-21.888-0.128-32.853333-0.128-10.922667 0-21.888 0-32.810667-0.128v-205.226667h42.88V354.56z m293.034666 6.314667c17.194667-14.250667 45.738667-4.906667 52.181334 16.085333 8.192 19.242667-7.168 43.093333-27.648 44.970667-9.514667 0.853333-19.114667 0.682667-28.672 0.554666l-9.557334-0.128a194.133333 194.133333 0 0 0-0.085333-14.037333c-0.597333-17.493333-1.152-36.266667 13.781333-47.445333zM31.402667 422.997333L16.64 422.954667c-3.584 44.8-7.04 89.813333-10.154667 134.272a108.672 108.672 0 0 1-6.485333 29.781333c11.52 26.410667 22.997333 52.693333 35.285333 78.634667 27.52-36.821333 37.717333-83.2 40.576-128.256 0.938667-15.018667 2.176-29.994667 3.413334-45.013334 1.92-23.296 3.84-46.634667 4.650666-69.973333-17.493333 0.682667-34.986667 0.64-52.522666 0.597333z m211.754666-0.085333h67.968l2.56 33.536c2.645333 33.493333 5.205333 66.986667 7.68 100.48 0.64 10.325333 2.858667 20.48 6.442667 30.208-11.477333 26.282667-23.04 52.522667-35.2 78.634667-25.472-33.962667-36.224-76.416-39.808-117.930667-2.176-25.173333-4.053333-50.346667-5.888-75.605333-1.237333-16.469333-2.432-32.896-3.754667-49.322667z m115.754667 200.192c-10.581333 22.784-21.034667 45.653333-31.445333 68.565333 22.954667 6.784 46.762667 6.016 70.570666 5.248 12.330667-0.341333 24.618667-0.768 36.821334-0.085333 10.496-22.784 20.949333-45.568 31.146666-68.48-11.221333-0.426667-22.528-0.213333-33.834666 0-24.618667 0.426667-49.237333 0.938667-73.258667-5.248z" fill="#2B263B" p-id="10358"></path></svg>